<?xml version="1.0" encoding="utf-8"?>
<!-- Generator: Adobe Illustrator 24.1.3, SVG Export Plug-In . SVG Version: 6.00 Build 0)  -->
<svg version="1.1" id="Layer_1" xmlns="http://www.w3.org/2000/svg" xmlns:xlink="http://www.w3.org/1999/xlink" x="0px" y="0px"
	 viewBox="0 0 433 107" style="enable-background:new 0 0 433 107;" xml:space="preserve">
<style type="text/css">
	.st0{fill:#EFEDED;}
</style>
<g>
	<path class="st0" d="M123.7,53.8c0-1.8,0.3-3.6,0.9-5.3c0.6-1.7,1.4-3.4,2.5-4.9c1.1-1.4,2.5-2.7,4-3.6c1.6-0.9,3.5-1.4,5.3-1.4
		H177c1.8,0,3.3,1.5,3.3,3.3c0,1.8-1.5,3.3-3.3,3.3l0,0H138c-1.4-0.1-2.7,0.2-3.9,0.9c-0.9,0.5-1.7,1.2-2.4,2.1
		c-0.6,0.8-1,1.8-1.2,2.7c-0.4,1.8-0.4,3.7,0,5.5c0.2,1,0.6,1.9,1.2,2.7c0.6,0.9,1.4,1.6,2.3,2.1c1.2,0.6,2.6,0.9,3.9,0.9H177
		c1.8,0,3.3,1.5,3.3,3.3c0,1.8-1.5,3.3-3.3,3.3l0,0h-41.2c-1.8,0-3.5-0.4-5.1-1.4c-1.5-0.9-2.8-2.1-3.8-3.6
		c-1.1-1.5-1.9-3.1-2.4-4.9C124,57.4,123.7,55.6,123.7,53.8z"/>
	<path class="st0" d="M255.9,65.6c0,1.8-1.5,3.3-3.3,3.3c0,0,0,0,0,0l0,0c-0.4,0-0.8-0.1-1.2-0.3c-0.4-0.2-0.7-0.4-1-0.7
		c-0.2-0.2-0.4-0.4-0.6-0.7c-1.7-2.1-3.6-4-5.9-5.6c-2-1.3-4.1-2.3-6.4-3.1c-2.3-0.7-4.7-1.1-7.1-1.3c-2.5-0.2-5.1-0.2-8-0.2h-14.3
		v8.5c0,0.9-0.4,1.8-1,2.4c-0.6,0.6-1.5,1-2.3,1c-1.8,0-3.3-1.5-3.3-3.3V47.7c0-1.3,0.2-2.6,0.8-3.7c0.5-1.1,1.1-2,1.9-2.8
		c0.8-0.8,1.7-1.4,2.7-1.8c1-0.4,2-0.7,3.1-0.7h36.3c1.2,0,2.5,0.2,3.6,0.7c1.1,0.5,2.2,1.1,3.1,2c0.9,0.8,1.6,1.8,2.1,2.9
		c0.5,1.1,0.8,2.4,0.8,3.6c0,1.8-1.5,3.3-3.3,3.3s-3.3-1.5-3.3-3.3l0,0c0-0.7-0.2-1.3-0.7-1.7c-0.5-0.4-1.1-0.7-1.7-0.8h-36.4
		c-0.5,0-1,0.1-1.5,0.4c-0.3,0.3-0.6,0.7-0.7,1.1v3.6h14.2c3.7,0,7.4,0.2,11,0.7c3.1,0.4,6,1.2,8.9,2.3c2.6,1,5,2.4,7.2,4.1
		c2.2,1.8,4.1,3.9,5.7,6.2C255.6,64.3,255.9,64.9,255.9,65.6z"/>
	<path class="st0" d="M305.1,50.7c1.6,0,3.2-0.1,4.9-0.2c1.5-0.2,3-0.7,4.4-1.4c1.9-0.9,3.7-2.1,5.4-3.3c2-1.5,4.5-3.5,7.5-6.2
		c0.7-0.6,1.5-1,2.4-1c1.8,0,3.3,1.5,3.3,3.3c0,0,0,0,0,0l0,0c0,0.5-0.1,1-0.4,1.5c-0.2,0.5-0.5,0.9-0.9,1.2
		c-2.9,2.6-5.5,4.7-7.8,6.4c-2,1.5-4.2,2.9-6.5,4c-1.9,0.9-3.9,1.7-6,2.1c-2.1,0.4-4.2,0.6-6.3,0.6c-2.2,0-4.4-0.2-6.5-0.6
		c-2.1-0.4-4.1-1.1-6-2.1c-2.2-1.2-4.4-2.5-6.4-4.1c-2.3-1.7-4.9-3.8-7.9-6.4c-0.4-0.3-0.7-0.8-0.9-1.2c-0.3-0.4-0.4-1-0.4-1.5
		c0-1.8,1.5-3.3,3.3-3.3l0,0c0.4,0,0.8,0.1,1.2,0.3c0.4,0.2,0.8,0.4,1.1,0.7c3,2.6,5.4,4.6,7.5,6.1c1.7,1.3,3.5,2.4,5.4,3.3
		c1.4,0.7,3,1.2,4.5,1.4C301.8,50.6,303.4,50.7,305.1,50.7z M300.8,65.6c0-2.4,2-4.2,4.4-4.2c2.4,0,4.2,2,4.2,4.4
		c0,2.4-2,4.2-4.4,4.2c-1.1,0-2.2-0.5-3-1.3C301.2,67.9,300.7,66.8,300.8,65.6z"/>
	<path class="st0" d="M405.3,38.6c1.8,0,3.3,1.5,3.3,3.3c0,0,0,0,0,0l0,0c0,0.8-0.3,1.7-0.9,2.3c-0.6,0.6-1.3,1-2.2,1.1h-14
		c-1.2,0-2.4,0.4-3.4,1c-0.9,0.5-1.6,1.3-2.1,2.1c-0.5,0.8-0.9,1.7-1,2.7c-0.2,0.9-0.3,1.8-0.3,2.6v11.8c0,1.8-1.5,3.3-3.3,3.3
		c-1.8,0-3.3-1.5-3.3-3.3l0,0V53.8c0-1.5,0.2-2.9,0.6-4.3c0.4-1.4,0.9-2.8,1.7-4.1h-22.8c-1.8-0.1-3.3-1.7-3.1-3.5
		c0.1-1.7,1.4-3,3.1-3.1L405.3,38.6L405.3,38.6z"/>
</g>
<path class="st0" d="M86.5,73.9c9.3-19.4,1-42.7-18.4-52c-5.3-2.5-11-3.8-16.8-3.8c-0.2,0-0.4,0-0.6,0c-2.5-5-8.5-7.1-13.6-4.7
	c-3.8,1.9-6.1,5.9-5.7,10.1c-2.8,1.7-5.4,3.7-7.7,6c-0.6,0.7-1.3,1.3-1.9,2c-4.2-1.1-8.5,1.5-9.6,5.7c-0.7,2.7,0.1,5.5,2,7.5l0,0
	c-1.3,4-2,8.2-1.9,12.4c0,0.3,0,0.5,0,0.8c-3,1.7-4,5.5-2.2,8.5c0.9,1.5,2.4,2.6,4.2,3c1.4,4.2,3.5,8.2,6.2,11.7
	c-0.6,3,1.4,6,4.4,6.6c0,0,0,0,0,0c0.4,0.1,0.7,0.1,1.1,0.1c0.3,0,0.7,0,1-0.1c12.5,9.9,29.8,11.2,43.6,3.3l15.5,5
	c1.6,0.5,3.4-0.4,3.9-2c0,0,0,0,0,0c0.2-0.5,0.2-1,0.1-1.6L86.5,73.9z M38.4,20.4c0.1-0.2,0.3-0.4,0.4-0.5c1.5-1.5,4-1.5,5.5,0
	c1.5,1.5,1.5,3.8,0.1,5.4l-0.1,0.2c-1.5,1.5-4,1.5-5.5,0C37.5,24,37.3,21.9,38.4,20.4z M17.4,36.9c0.3-0.3,0.7-0.5,1-0.7
	c1.7-0.8,3.8,0,4.5,1.7c0.8,1.7,0,3.8-1.7,4.5c-1.3,0.6-2.8,0.3-3.8-0.7c-0.6-0.6-0.9-1.3-1-2.1c0-0.1,0-0.2,0-0.4
	C16.5,38.4,16.8,37.5,17.4,36.9L17.4,36.9z M17.3,65.2c-1,1-2.7,1-3.7,0c-0.4-0.3-0.6-0.8-0.7-1.3c0-0.1,0-0.2,0-0.3
	c0-0.1,0-0.2,0-0.4c-0.1-1.5,1-2.7,2.5-2.8c1.5-0.1,2.7,1,2.8,2.5c0,0.1,0,0.2,0,0.3C18.2,64,17.9,64.7,17.3,65.2L17.3,65.2z
	 M27.5,83.7c-0.8,0.8-2.1,0.9-2.9,0.1c-0.8-0.8-0.9-2.1-0.1-2.9c0.8-0.8,2.1-0.9,2.9-0.1c0.4,0.4,0.6,0.9,0.6,1.5
	C28.1,82.8,27.9,83.3,27.5,83.7z M80.2,74.2L83,88.5l-11.8-3.8c-0.3-0.1-0.6-0.1-0.9-0.1V49.1h-6.3v38.2c-3.1,1.3-6.3,2.1-9.6,2.4
	v-31h-6.3v31c-3.3-0.3-6.6-1.1-9.6-2.4V65.9h-6.3v17.9l-0.7-0.5c0.1-0.4,0.1-0.7,0.1-1.1c0-3.1-2.5-5.6-5.6-5.6c-0.3,0-0.7,0-1,0.1
	c-2.1-2.8-3.8-6-4.8-9.4c2.2-2.6,1.9-6.5-0.7-8.7c-0.3-0.2-0.6-0.4-0.9-0.6c0-0.3,0-0.5,0-0.8c0-3.4,0.5-6.8,1.6-10
	c4.3-0.2,7.7-3.8,7.6-8.1c0-1.2-0.4-2.4-1-3.5c0.4-0.5,0.9-1,1.4-1.5c1.8-1.8,3.7-3.3,5.9-4.7c0.1,0.1,0.2,0.3,0.4,0.4
	c4,4,10.4,4,14.4,0c1.4-1.4,2.4-3.3,2.8-5.3C69.5,24.6,84.1,39.3,84,57.3c0,5.1-1.3,10.2-3.6,14.7C80.1,72.7,80,73.4,80.2,74.2
	L80.2,74.2z"/>
</svg>
