<svg id="Capa_1" data-name="Capa 1" xmlns="http://www.w3.org/2000/svg" viewBox="0 0 468.43 468.43"><defs><style>.cls-1{fill:#fe636e;}.cls-2{fill:#ffd659;}.cls-3{fill:#f2705b;}.cls-4{fill:#fff;}.cls-5{fill:#a6e7f0;}.cls-6{fill:#334a5e;}.cls-7{fill:#41596b;}</style></defs><path class="cls-1" d="M219.17,336.28a72.31,72.31,0,0,1-5.34,8.65,83,83,0,0,1-69.2,34.86,86.31,86.31,0,0,1,1.1-14.31,82.51,82.51,0,0,1-42.67,10.93A83.91,83.91,0,0,1,114,333.74a79.34,79.34,0,0,1-14.31,1,83.14,83.14,0,0,1,34.86-69.21,73.55,73.55,0,0,1,8.65-5.33l-.19,1a85.39,85.39,0,0,1,21.72,5.86A83,83,0,0,1,178.06,274a86.14,86.14,0,0,1,27.19,27.25,86.37,86.37,0,0,1,12.81,35.06A3,3,0,0,0,219.17,336.28Z"/><path class="cls-2" d="M212.27,314.75a68,68,0,0,1-51.64,49.11l4-25.76-26,14.83a67.19,67.19,0,0,1-19.52,7.48,70.72,70.72,0,0,1,7.48-19.51l14.83-26-25.76,4a68.08,68.08,0,0,1,49.11-51.65,83.1,83.1,0,0,1,13.34,6.9,85.87,85.87,0,0,1,27.19,27.25A82.48,82.48,0,0,1,212.27,314.75Z"/><path class="cls-3" d="M218.22,336.4a87,87,0,0,0-12.81-35.06,87,87,0,0,0-27.25-27.26,87.08,87.08,0,0,0-35.06-12.81A238.55,238.55,0,0,1,377,71.21h31.29v31.28a241.41,241.41,0,0,1-4.69,47.36A239.25,239.25,0,0,1,218.22,336.4Z"/><path class="cls-4" d="M333.18,145.48A52.27,52.27,0,1,0,296,234.73a52.34,52.34,0,0,0,37.14-89.25Z"/><circle class="cls-5" cx="296.24" cy="182.43" r="34.8"/><path class="cls-6" d="M403.6,149.85l-74-74A240.77,240.77,0,0,1,377,71.21h31.29v31.28A241.41,241.41,0,0,1,403.6,149.85Z"/><path class="cls-7" d="M149.53,236.94C121,225.5,93.87,226.29,63.9,246c-2.7-39.8,33.7-99.91,119.73-77.2C183.63,168.81,160.7,199.17,149.53,236.94Z"/><path class="cls-7" d="M245.57,329.74c12,28.26,11.75,55.43-7.37,85.79,39.85,1.91,99.22-35.68,74.81-121.24C313,294.29,283.11,317.82,245.57,329.74Z"/></svg>