<svg id="Capa_1" data-name="Capa 1" xmlns="http://www.w3.org/2000/svg" viewBox="0 0 468.43 468.43"><defs><style>.cls-1,.cls-2,.cls-3{fill:none;stroke:#fff;stroke-linejoin:round;}.cls-1{stroke-width:6px;}.cls-2{stroke-width:5px;}.cls-3{stroke-width:10px;}</style></defs><path class="cls-1" d="M225.66,324.51a73.55,73.55,0,0,1-5.33,8.65,83.87,83.87,0,0,1-9,10.67A82.58,82.58,0,0,1,151.12,368a85.24,85.24,0,0,1,1.11-14.31,82.54,82.54,0,0,1-42.67,10.93A83.8,83.8,0,0,1,120.48,322a79.27,79.27,0,0,1-14.31,1A83.13,83.13,0,0,1,141,253.8a73.55,73.55,0,0,1,8.65-5.33c-.07.33-.13.72-.2,1a85.46,85.46,0,0,1,21.73,5.86,83,83,0,0,1,13.33,6.89,85.87,85.87,0,0,1,27.19,27.25,83.87,83.87,0,0,1,7,13.34,85.39,85.39,0,0,1,5.86,21.72A3,3,0,0,0,225.66,324.51Z"/><path class="cls-2" d="M218.77,303a68,68,0,0,1-51.65,49.11l4-25.76-26,14.83a67,67,0,0,1-19.51,7.48A70.09,70.09,0,0,1,133,329.13l14.83-26-25.76,4a68,68,0,0,1,49.11-51.65,83,83,0,0,1,13.33,6.9,85.6,85.6,0,0,1,27.19,27.25A82.54,82.54,0,0,1,218.77,303Z"/><path class="cls-3" d="M224.79,322.76A87.08,87.08,0,0,0,212,287.7a87.16,87.16,0,0,0-27.25-27.25,86.94,86.94,0,0,0-35.06-12.81A238.62,238.62,0,0,1,383.57,57.57h31.29V88.86a241.23,241.23,0,0,1-4.69,47.35A239.24,239.24,0,0,1,224.79,322.76Z"/><path class="cls-1" d="M339.75,131.85a52.27,52.27,0,1,0-37.14,89.24,52.33,52.33,0,0,0,37.14-89.24Z"/><circle class="cls-1" cx="302.81" cy="168.8" r="34.8"/><path class="cls-3" d="M410.17,136.21l-73.95-74a240.77,240.77,0,0,1,47.35-4.69h31.29V88.86A241.23,241.23,0,0,1,410.17,136.21Z"/><path class="cls-3" d="M156.1,223.31c-28.5-11.44-55.66-10.66-85.63,9.07-2.7-39.8,33.7-99.91,119.73-77.2C190.2,155.18,167.27,185.54,156.1,223.31Z"/><path class="cls-3" d="M252.14,316.11c12,28.26,11.76,55.43-7.37,85.79,39.85,1.91,99.22-35.68,74.81-121.24C319.58,280.66,289.68,304.19,252.14,316.11Z"/></svg>